<svg width="30" height="30" viewBox="0 0 30 30" fill="none" xmlns="http://www.w3.org/2000/svg">
<path d="M15 2.5V5M26.25 6.25L24.375 8.125M3.74996 6.25L5.62496 8.125M15 27.5C19.5053 27.5 23.5167 24.5681 26.0965 22.0986C27.9678 20.3072 27.9678 17.1928 26.0965 15.4014C23.5167 12.9319 19.5053 10 15 10C10.4947 10 6.48327 12.9319 3.90351 15.4014C2.03216 17.1928 2.03216 20.3072 3.90351 22.0986C6.48327 24.5681 10.4947 27.5 15 27.5ZM18.75 18.75C18.75 20.8211 17.071 22.5 15 22.5C12.9289 22.5 11.25 20.8211 11.25 18.75C11.25 16.6789 12.9289 15 15 15C17.071 15 18.75 16.6789 18.75 18.75Z" stroke="#191919" stroke-width="1.875" stroke-linecap="round"/>
</svg>
