<svg width="24" height="24" viewBox="0 0 24 24" fill="none" xmlns="http://www.w3.org/2000/svg">
<path fill-rule="evenodd" clip-rule="evenodd" d="M12 3.75C10.4812 3.75 9.25 4.98122 9.25 6.5V8.25H14.75V6.5C14.75 4.98122 13.5188 3.75 12 3.75ZM7.75 6.5V8.25H7C5.48122 8.25 4.25 9.48122 4.25 11V19C4.25 20.5188 5.48122 21.75 7 21.75H17C18.5188 21.75 19.75 20.5188 19.75 19V11C19.75 9.48122 18.5188 8.25 17 8.25H16.25V6.5C16.25 4.15279 14.3472 2.25 12 2.25C9.65279 2.25 7.75 4.15279 7.75 6.5ZM7 9.75C6.30964 9.75 5.75 10.3096 5.75 11V19C5.75 19.6904 6.30964 20.25 7 20.25H17C17.6904 20.25 18.25 19.6904 18.25 19V11C18.25 10.3096 17.6904 9.75 17 9.75H7ZM15.75 14C15.75 13.5858 15.4142 13.25 15 13.25C14.5858 13.25 14.25 13.5858 14.25 14V17.5C14.25 17.9142 14.5858 18.25 15 18.25C15.4142 18.25 15.75 17.9142 15.75 17.5V14Z" fill="#191919"/>
</svg>
