<svg width="24" height="24" viewBox="0 0 24 24" fill="none" xmlns="http://www.w3.org/2000/svg">
<path fill-rule="evenodd" clip-rule="evenodd" d="M11.5192 3.01266C11.8269 2.88445 12.1731 2.88445 12.4808 3.01266L18.4808 5.51266C18.9466 5.70674 19.25 6.16188 19.25 6.6665V12.26C19.25 14.6354 18.0864 16.8601 16.1354 18.2149L12.713 20.5916C12.2843 20.8893 11.7157 20.8893 11.287 20.5916L7.86463 18.2149C5.91359 16.8601 4.75 14.6354 4.75 12.26V6.6665C4.75 6.16188 5.05342 5.70674 5.51923 5.51266L11.5192 3.01266ZM13.0577 1.62804C12.3808 1.34599 11.6192 1.34599 10.9423 1.62804L4.94231 4.12804C3.91753 4.55503 3.25 5.55633 3.25 6.6665V12.26C3.25 15.1268 4.65433 17.8118 7.00904 19.447L10.4314 21.8237C11.3746 22.4786 12.6254 22.4786 13.5686 21.8236L16.991 19.447C19.3457 17.8118 20.75 15.1268 20.75 12.26V6.6665C20.75 5.55633 20.0825 4.55503 19.0577 4.12804L13.0577 1.62804ZM13.5 9C13.5 9.82843 12.8284 10.5 12 10.5C11.1716 10.5 10.5 9.82843 10.5 9C10.5 8.17157 11.1716 7.5 12 7.5C12.8284 7.5 13.5 8.17157 13.5 9ZM13.6508 11.5054C14.4637 10.9687 15 10.047 15 9C15 7.34315 13.6569 6 12 6C10.3431 6 9 7.34315 9 9C9 10.0722 9.56248 11.013 10.4085 11.5435C8.57068 12.2112 7.25 13.9462 7.25 16C7.25 16.4142 7.58579 16.75 8 16.75C8.41421 16.75 8.75 16.4142 8.75 16C8.75 14.2196 10.2278 12.75 12.0837 12.75C13.0215 12.75 13.8653 13.1264 14.4699 13.7305C14.7629 14.0233 15.2378 14.0231 15.5305 13.7301C15.8233 13.4371 15.8231 12.9622 15.5301 12.6695C15.0095 12.1493 14.3678 11.7468 13.6508 11.5054ZM18.5206 12.4601C18.8188 12.7476 18.8274 13.2224 18.5399 13.5206L14.6827 17.5206C14.5414 17.6672 14.3465 17.75 14.1429 17.75C13.9392 17.75 13.7443 17.6672 13.603 17.5206L11.4601 15.2984C11.1726 15.0002 11.1812 14.5254 11.4794 14.2379C11.7776 13.9504 12.2524 13.959 12.5399 14.2572L14.1429 15.9195L17.4601 12.4794C17.7476 12.1812 18.2224 12.1726 18.5206 12.4601Z" fill="#191919"/>
</svg>
