<svg width="24" height="24" viewBox="0 0 24 24" fill="none" xmlns="http://www.w3.org/2000/svg">
<path fill-rule="evenodd" clip-rule="evenodd" d="M10.6145 4.44238C8.73459 4.44238 7.21064 5.96634 7.21064 7.84623C7.21064 9.72612 8.73459 11.2501 10.6145 11.2501C12.4944 11.2501 14.0183 9.72612 14.0183 7.84623C14.0183 5.96634 12.4944 4.44238 10.6145 4.44238ZM5.71064 7.84623C5.71064 5.13791 7.90616 2.94238 10.6145 2.94238C13.3228 2.94238 15.5183 5.13791 15.5183 7.84623C15.5183 10.5545 13.3228 12.7501 10.6145 12.7501C7.90616 12.7501 5.71064 10.5545 5.71064 7.84623ZM17.5376 8.48084C17.9518 8.48084 18.2876 8.81663 18.2876 9.23084V10.7885H20.3068C20.721 10.7885 21.0568 11.1243 21.0568 11.5385C21.0568 11.9528 20.721 12.2885 20.3068 12.2885H18.2876V14.0994C19.8709 14.4431 21.0568 15.8523 21.0568 17.5385C21.0568 19.4822 19.4812 21.0578 17.5376 21.0578C15.5939 21.0578 14.0183 19.4822 14.0183 17.5385C14.0183 15.8523 15.2043 14.4431 16.7876 14.0994V11.5385V9.23084C16.7876 8.81663 17.1233 8.48084 17.5376 8.48084ZM17.5376 15.5193C16.4224 15.5193 15.5183 16.4233 15.5183 17.5385C15.5183 18.6537 16.4224 19.5578 17.5376 19.5578C18.6528 19.5578 19.5568 18.6537 19.5568 17.5385C19.5568 16.4233 18.6528 15.5193 17.5376 15.5193ZM4.44141 20.7693C4.44141 17.36 7.20519 14.5962 10.6145 14.5962C11.6562 14.5962 12.6357 14.8537 13.4948 15.3078L14.1957 13.9817C13.1259 13.4161 11.9064 13.0962 10.6145 13.0962C6.37676 13.0962 2.94141 16.5316 2.94141 20.7693C2.94141 21.1835 3.27719 21.5193 3.69141 21.5193C4.10562 21.5193 4.44141 21.1835 4.44141 20.7693Z" fill="#191919"/>
</svg>
