<svg width="24" height="26" viewBox="0 0 24 26" fill="none" xmlns="http://www.w3.org/2000/svg">
<path fill-rule="evenodd" clip-rule="evenodd" d="M11.9203 4.3182C11.972 4.30083 12.028 4.30083 12.0797 4.3182L19.5797 6.83921C19.6814 6.87342 19.75 6.96881 19.75 7.07618V13.7359C19.75 15.3169 19.3191 16.8388 18.3889 18.0307C17.7995 18.7859 17.1323 19.5522 16.5175 20.0689C15.3082 21.0851 13.075 22.1788 12.1099 22.6266C12.0519 22.6535 11.9892 22.6513 11.9355 22.623C11.0644 22.164 9.12455 21.0881 7.99951 20.0836C7.47965 19.6194 6.84496 18.9689 6.23038 18.3073C4.92633 16.9035 4.25 15.0222 4.25 13.0691V7.07618C4.25 6.96881 4.31857 6.87343 4.42035 6.83921L11.9203 4.3182ZM12.5576 2.89638C12.1958 2.77477 11.8042 2.77477 11.4424 2.89638L3.94242 5.41739C3.22996 5.65687 2.75 6.32455 2.75 7.07618V13.0691C2.75 15.3631 3.54496 17.6204 5.13138 19.3282C5.75475 19.9992 6.42739 20.6908 7.00049 21.2025C8.28079 22.3456 10.3774 23.4975 11.2363 23.9501C11.7068 24.198 12.2617 24.2097 12.7412 23.9873C13.6822 23.5507 16.0971 22.3814 17.4825 21.2172C18.2188 20.5985 18.9625 19.7337 19.5713 18.9536C20.7478 17.4462 21.25 15.579 21.25 13.7359V7.07618C21.25 6.32455 20.77 5.65687 20.0576 5.41739L12.5576 2.89638ZM12.75 9.50019C12.75 9.08598 12.4142 8.75019 12 8.75019C11.5858 8.75019 11.25 9.08598 11.25 9.50019V11.7502H9C8.58579 11.7502 8.25 12.086 8.25 12.5002C8.25 12.9144 8.58579 13.2502 9 13.2502H11.25V15.5002C11.25 15.9144 11.5858 16.2502 12 16.2502C12.4142 16.2502 12.75 15.9144 12.75 15.5002V13.2502H15C15.4142 13.2502 15.75 12.9144 15.75 12.5002C15.75 12.086 15.4142 11.7502 15 11.7502H12.75V9.50019Z" fill="#191919"/>
</svg>
