<svg width="30" height="30" viewBox="0 0 30 30" fill="none" xmlns="http://www.w3.org/2000/svg">
<path d="M25.9299 19.6507L25.1304 19.1611V19.1611L25.9299 19.6507ZM24.7367 21.5993L25.5362 22.0888V22.0888L24.7367 21.5993ZM4.07011 10.3493L3.2706 9.85969H3.2706L4.07011 10.3493ZM5.2633 8.40071L6.06281 8.89029L5.2633 8.40071ZM8.52314 7.57716L8.97137 6.75375L8.97137 6.75375L8.52314 7.57716ZM4.94359 13.4228L4.49536 14.2462L4.49536 14.2462L4.94359 13.4228ZM21.4769 22.4228L21.0286 23.2462H21.0286L21.4769 22.4228ZM25.0564 16.5772L24.6082 17.4006L25.0564 16.5772ZM5.2633 21.5993L4.46378 22.0889H4.46378L5.2633 21.5993ZM4.07011 19.6507L4.86962 19.1612L4.07011 19.6507ZM24.7367 8.40073L25.5362 7.91115V7.91115L24.7367 8.40073ZM25.9299 10.3493L25.1304 10.8389V10.8389L25.9299 10.3493ZM25.0564 13.4228L25.5046 14.2463L25.0564 13.4228ZM21.4769 7.57717L21.9251 8.40058V8.40058L21.4769 7.57717ZM4.94358 16.5772L5.39181 17.4006H5.39181L4.94358 16.5772ZM8.52314 22.4228L8.07492 21.5994L8.07492 21.5994L8.52314 22.4228ZM21.35 7.64622L20.9018 6.82281V6.82281L21.35 7.64622ZM8.65 7.64621L8.20177 8.46962L8.20177 8.46962L8.65 7.64621ZM21.35 22.3538L21.7982 21.5304L21.7982 21.5304L21.35 22.3538ZM8.65 22.3538L9.09822 23.1772L9.09823 23.1772L8.65 22.3538ZM13.8068 3.75V4.6875H16.1932V3.75V2.8125H13.8068V3.75ZM16.1932 26.25V25.3125H13.8068V26.25V27.1875H16.1932V26.25ZM13.8068 26.25V25.3125C12.9539 25.3125 12.3579 24.6737 12.3579 24H11.4204H10.4829C10.4829 25.8116 12.0238 27.1875 13.8068 27.1875V26.25ZM18.5796 24H17.6421C17.6421 24.6737 17.0461 25.3125 16.1932 25.3125V26.25V27.1875C17.9762 27.1875 19.5171 25.8116 19.5171 24H18.5796ZM16.1932 3.75V4.6875C17.0461 4.6875 17.6421 5.32634 17.6421 6H18.5796H19.5171C19.5171 4.18838 17.9762 2.8125 16.1932 2.8125V3.75ZM13.8068 3.75V2.8125C12.0238 2.8125 10.4829 4.18838 10.4829 6H11.4204H12.3579C12.3579 5.32634 12.9539 4.6875 13.8068 4.6875V3.75ZM25.9299 19.6507L25.1304 19.1611L23.9372 21.1097L24.7367 21.5993L25.5362 22.0888L26.7294 20.1403L25.9299 19.6507ZM4.07011 10.3493L4.86963 10.8388L6.06281 8.89029L5.2633 8.40071L4.46379 7.91114L3.2706 9.85969L4.07011 10.3493ZM5.2633 8.40071L6.06281 8.89029C6.44861 8.26025 7.35068 8.00632 8.07492 8.40056L8.52314 7.57716L8.97137 6.75375C7.41284 5.90535 5.39594 6.38886 4.46379 7.91114L5.2633 8.40071ZM4.94359 13.4228L5.39181 12.5994C4.69683 12.2211 4.50537 11.4337 4.86963 10.8388L4.07011 10.3493L3.2706 9.85969C2.3169 11.4172 2.90758 13.3819 4.49536 14.2462L4.94359 13.4228ZM24.7367 21.5993L23.9372 21.1097C23.5514 21.7397 22.6493 21.9937 21.9251 21.5994L21.4769 22.4228L21.0286 23.2462C22.5872 24.0946 24.6041 23.6111 25.5362 22.0888L24.7367 21.5993ZM25.9299 19.6507L26.7294 20.1403C27.6831 18.5828 27.0924 16.6181 25.5046 15.7537L25.0564 16.5772L24.6082 17.4006C25.3032 17.7789 25.4946 18.5663 25.1304 19.1611L25.9299 19.6507ZM5.2633 21.5993L6.06281 21.1097L4.86962 19.1612L4.07011 19.6507L3.2706 20.1403L4.46378 22.0889L5.2633 21.5993ZM24.7367 8.40073L23.9372 8.89031L25.1304 10.8389L25.9299 10.3493L26.7294 9.85971L25.5362 7.91115L24.7367 8.40073ZM25.9299 10.3493L25.1304 10.8389C25.4946 11.4337 25.3032 12.2211 24.6082 12.5994L25.0564 13.4228L25.5046 14.2463C27.0924 13.3819 27.6831 11.4172 26.7294 9.85971L25.9299 10.3493ZM21.4769 7.57717L21.9251 8.40058C22.6493 8.00634 23.5514 8.26027 23.9372 8.89031L24.7367 8.40073L25.5362 7.91115C24.6041 6.38887 22.5872 5.90537 21.0286 6.75377L21.4769 7.57717ZM4.07011 19.6507L4.86962 19.1612C4.50537 18.5663 4.69683 17.7789 5.39181 17.4006L4.94358 16.5772L4.49536 15.7538C2.90757 16.6181 2.3169 18.5828 3.2706 20.1403L4.07011 19.6507ZM5.2633 21.5993L4.46378 22.0889C5.39594 23.6111 7.41284 24.0947 8.97137 23.2463L8.52314 22.4228L8.07492 21.5994C7.35068 21.9937 6.44861 21.7397 6.06281 21.1097L5.2633 21.5993ZM21.35 7.64622L21.7982 8.46963L21.9251 8.40058L21.4769 7.57717L21.0286 6.75377L20.9018 6.82281L21.35 7.64622ZM8.52314 7.57716L8.07492 8.40056L8.20177 8.46962L8.65 7.64621L9.09823 6.8228L8.97137 6.75375L8.52314 7.57716ZM21.4769 22.4228L21.9251 21.5994L21.7982 21.5304L21.35 22.3538L20.9018 23.1772L21.0286 23.2462L21.4769 22.4228ZM8.65 22.3538L8.20178 21.5304L8.07492 21.5994L8.52314 22.4228L8.97137 23.2463L9.09822 23.1772L8.65 22.3538ZM4.94359 13.4228L4.49536 14.2462C5.09255 14.5713 5.09255 15.4287 4.49536 15.7538L4.94358 16.5772L5.39181 17.4006C7.29373 16.3653 7.29373 13.6347 5.39181 12.5994L4.94359 13.4228ZM8.65 22.3538L9.09823 23.1772C9.72248 22.8374 10.4829 23.2893 10.4829 24H11.4204H12.3579C12.3579 21.8667 10.0754 20.5104 8.20177 21.5304L8.65 22.3538ZM18.5796 24H19.5171C19.5171 23.2892 20.2775 22.8374 20.9018 23.1772L21.35 22.3538L21.7982 21.5304C19.9246 20.5104 17.6421 21.8667 17.6421 24H18.5796ZM25.0564 16.5772L25.5046 15.7537C24.9075 15.4287 24.9075 14.5713 25.5046 14.2463L25.0564 13.4228L24.6082 12.5994C22.7063 13.6348 22.7063 16.3652 24.6082 17.4006L25.0564 16.5772ZM8.65 7.64621L8.20177 8.46962C10.0754 9.48956 12.3579 8.13328 12.3579 6H11.4204H10.4829C10.4829 6.71075 9.72248 7.16262 9.09823 6.8228L8.65 7.64621ZM21.35 7.64622L20.9018 6.82281C20.2775 7.16263 19.5171 6.71076 19.5171 6H18.5796H17.6421C17.6421 8.13329 19.9246 9.48957 21.7982 8.46963L21.35 7.64622ZM18.75 15H17.8125C17.8125 16.5533 16.5533 17.8125 15 17.8125V18.75V19.6875C17.5888 19.6875 19.6875 17.5888 19.6875 15H18.75ZM15 18.75V17.8125C13.4467 17.8125 12.1875 16.5533 12.1875 15H11.25H10.3125C10.3125 17.5888 12.4112 19.6875 15 19.6875V18.75ZM11.25 15H12.1875C12.1875 13.4467 13.4467 12.1875 15 12.1875V11.25V10.3125C12.4112 10.3125 10.3125 12.4112 10.3125 15H11.25ZM15 11.25V12.1875C16.5533 12.1875 17.8125 13.4467 17.8125 15H18.75H19.6875C19.6875 12.4112 17.5888 10.3125 15 10.3125V11.25Z" fill="#191919"/>
</svg>
