<svg width="20" height="19" viewBox="0 0 20 19" fill="none" xmlns="http://www.w3.org/2000/svg">
<path fill-rule="evenodd" clip-rule="evenodd" d="M11.0016 1.75598V2.31124V4.60381L12.173 3.4324L12.5657 3.03977L13.3509 3.82502L12.9583 4.21765L11.0016 6.17432V8.9189L13.3788 7.54641L14.095 4.87356L14.2387 4.33722L15.3114 4.62464L15.1677 5.16098L14.7389 6.76116L16.7244 5.61487L17.2052 5.33724L17.7605 6.29898L17.2796 6.57661L15.2942 7.72289L16.8944 8.15166L17.4307 8.29537L17.1433 9.36805L16.607 9.22434L13.9341 8.50815L11.5569 9.8806L13.9332 11.2525L16.606 10.5363L17.1424 10.3926L17.4298 11.4653L16.8935 11.609L15.2933 12.0378L17.2787 13.1841L17.7596 13.4617L17.2043 14.4234L16.7234 14.1458L14.738 12.9995L15.1668 14.5997L15.3105 15.136L14.2378 15.4234L14.0941 14.8871L13.3779 12.2143L11.0016 10.8423V13.586L12.9583 15.5427L13.3509 15.9353L12.5657 16.7205L12.173 16.3279L11.0016 15.1565V17.4491V18.0043H9.89111V17.4491V15.1565L8.7197 16.3279L8.32707 16.7205L7.54182 15.9353L7.93445 15.5427L9.89111 13.586V10.8424L7.5154 12.214L6.79921 14.8868L6.65549 15.4232L5.58282 15.1358L5.72653 14.5994L6.1553 12.9992L4.16987 14.1455L3.689 14.4232L3.13375 13.4614L3.61461 13.1838L5.60004 12.0375L3.99986 11.6087L3.46352 11.465L3.75094 10.3924L4.28728 10.5361L6.96014 11.2523L9.33591 9.8806L6.9592 8.50841L4.28635 9.2246L3.75001 9.36831L3.46259 8.29563L3.99892 8.15192L5.5991 7.72316L3.61368 6.57687L3.13281 6.29924L3.68807 5.33751L4.16894 5.61513L6.15436 6.76142L5.7256 5.16124L5.58188 4.6249L6.65456 4.33748L6.79827 4.87382L7.51446 7.54667L9.89111 8.91883V6.17432L7.93445 4.21765L7.54182 3.82502L8.32707 3.03977L8.7197 3.4324L9.89111 4.60381V2.31124V1.75598H11.0016Z" fill="white"/>
</svg>
