<svg width="24" height="24" viewBox="0 0 24 24" fill="none" xmlns="http://www.w3.org/2000/svg">
<path fill-rule="evenodd" clip-rule="evenodd" d="M2.25 7C2.25 5.48122 3.48122 4.25 5 4.25H19C20.5188 4.25 21.75 5.48122 21.75 7V17C21.75 18.5188 20.5188 19.75 19 19.75H5C3.48122 19.75 2.25 18.5188 2.25 17V7ZM5 5.75C4.30964 5.75 3.75 6.30964 3.75 7V8.67871H20.25V7C20.25 6.30964 19.6904 5.75 19 5.75H5ZM3.75 17V10.1787H20.25V17C20.25 17.6904 19.6904 18.25 19 18.25H5C4.30964 18.25 3.75 17.6904 3.75 17ZM13.7144 14.6787C13.3001 14.6787 12.9644 15.0145 12.9644 15.4287C12.9644 15.8429 13.3001 16.1787 13.7144 16.1787H18.0001C18.4143 16.1787 18.7501 15.8429 18.7501 15.4287C18.7501 15.0145 18.4143 14.6787 18.0001 14.6787H13.7144Z" fill="#171A1B"/>
</svg>
