<svg width="24" height="24" viewBox="0 0 24 24" fill="none" xmlns="http://www.w3.org/2000/svg">
<path fill-rule="evenodd" clip-rule="evenodd" d="M3.75 12C3.75 7.44365 7.44365 3.75 12 3.75C15.9253 3.75 19.2119 6.4921 20.0456 10.166C20.1372 10.5699 20.539 10.8231 20.9429 10.7314C21.3469 10.6397 21.6 10.238 21.5084 9.83403C20.5231 5.49195 16.6411 2.25 12 2.25C6.61522 2.25 2.25 6.61522 2.25 12C2.25 17.3848 6.61522 21.75 12 21.75C12.4142 21.75 12.75 21.4142 12.75 21C12.75 20.5858 12.4142 20.25 12 20.25C7.44365 20.25 3.75 16.5563 3.75 12ZM12.75 8C12.75 7.58579 12.4142 7.25 12 7.25C11.5858 7.25 11.25 7.58579 11.25 8V8.76836H10.2653C9.15228 8.76836 8.25 9.67064 8.25 10.7837C8.25 11.8967 9.15228 12.799 10.2653 12.799H11.25V13.8295H9.5C9.08579 13.8295 8.75 14.1653 8.75 14.5795C8.75 14.9938 9.08579 15.3295 9.5 15.3295H11.25V16C11.25 16.4142 11.5858 16.75 12 16.75C12.4142 16.75 12.75 16.4142 12.75 16V15.3295H13.7347C14.8477 15.3295 15.75 14.4273 15.75 13.3143C15.75 12.2012 14.8477 11.299 13.7347 11.299H12.75V10.2684H14.5C14.9142 10.2684 15.25 9.93257 15.25 9.51836C15.25 9.10414 14.9142 8.76836 14.5 8.76836H12.75V8ZM10.2653 10.2684H11.25V11.299H10.2653C9.98071 11.299 9.75 11.0682 9.75 10.7837C9.75 10.4991 9.98071 10.2684 10.2653 10.2684ZM12.75 13.8295V12.799H13.7347C14.0193 12.799 14.25 13.0297 14.25 13.3143C14.25 13.5988 14.0193 13.8295 13.7347 13.8295H12.75ZM17 14.25C17.4142 14.25 17.75 14.5858 17.75 15V21.5C17.75 21.8033 17.5673 22.0768 17.287 22.1929C17.0068 22.309 16.6842 22.2448 16.4697 22.0303L14.4697 20.0303C14.1768 19.7374 14.1768 19.2626 14.4697 18.9697C14.7626 18.6768 15.2374 18.6768 15.5303 18.9697L16.25 19.6893V15C16.25 14.5858 16.5858 14.25 17 14.25ZM19.25 20.5C19.25 20.9142 19.5858 21.25 20 21.25C20.4142 21.25 20.75 20.9142 20.75 20.5V15.8107L21.4697 16.5303C21.7626 16.8232 22.2374 16.8232 22.5303 16.5303C22.8232 16.2374 22.8232 15.7626 22.5303 15.4697L20.5303 13.4697C20.3158 13.2552 19.9932 13.191 19.713 13.3071C19.4327 13.4232 19.25 13.6967 19.25 14V20.5Z" fill="#171A1B"/>
</svg>
