<svg width="24" height="24" viewBox="0 0 24 24" fill="none" xmlns="http://www.w3.org/2000/svg">
<path fill-rule="evenodd" clip-rule="evenodd" d="M5.02734 4.69629C4.33699 4.69629 3.77734 5.25593 3.77734 5.94629V13.6321C3.77734 14.3225 4.33699 14.8821 5.02734 14.8821H6.62298H8.81971C10.0065 14.8821 10.9686 15.8442 10.9686 17.031C10.9686 18.2178 10.0065 19.1799 8.81971 19.1799H7.07244C6.65822 19.1799 6.32244 18.8441 6.32244 18.4299C6.32244 18.0157 6.65822 17.6799 7.07244 17.6799H8.81971C9.17809 17.6799 9.46862 17.3894 9.46862 17.031C9.46862 16.6726 9.17809 16.3821 8.81971 16.3821H6.62298H5.02734C3.50856 16.3821 2.27734 15.1509 2.27734 13.6321V5.94629C2.27734 4.42751 3.50856 3.19629 5.02734 3.19629H19.2077C20.6148 3.19629 21.7555 4.33699 21.7555 5.74411C21.7555 6.15832 21.4197 6.49411 21.0055 6.49411C20.5913 6.49411 20.2555 6.15832 20.2555 5.74411C20.2555 5.16541 19.7864 4.69629 19.2077 4.69629H5.02734ZM13.6906 9.19083C13.5525 9.19083 13.4406 9.30276 13.4406 9.44083V19.7747C13.4406 19.9128 13.5525 20.0247 13.6906 20.0247H20.3243C20.4624 20.0247 20.5743 19.9128 20.5743 19.7747V9.44083C20.5743 9.30276 20.4624 9.19083 20.3243 9.19083H13.6906ZM11.9406 9.44083C11.9406 8.47434 12.7241 7.69083 13.6906 7.69083H20.3243C21.2908 7.69083 22.0743 8.47434 22.0743 9.44083V19.7747C22.0743 20.7412 21.2908 21.5247 20.3243 21.5247H13.6906C12.7241 21.5247 11.9406 20.7412 11.9406 19.7747V9.44083ZM15.774 17.7501C15.3598 17.7501 15.024 18.0859 15.024 18.5001C15.024 18.9143 15.3598 19.2501 15.774 19.2501H18.2408C18.655 19.2501 18.9908 18.9143 18.9908 18.5001C18.9908 18.0859 18.655 17.7501 18.2408 17.7501H15.774Z" fill="#171A1B"/>
</svg>
