<svg width="21" height="21" viewBox="0 0 21 21" fill="none" xmlns="http://www.w3.org/2000/svg">
<path d="M7.74335 2.59467H4.36497C3.43206 2.59467 2.67578 3.35094 2.67578 4.28385V7.66223M7.74335 17.7974H4.36497C3.43206 17.7974 2.67578 17.0411 2.67578 16.1082V12.7298M12.8109 2.59467H16.1893C17.1222 2.59467 17.8785 3.35094 17.8785 4.28385V7.66223M17.8785 12.7298V16.1082C17.8785 17.0411 17.1222 17.7974 16.1893 17.7974H12.8109M6.95154 7.95143V7.02501M13.6027 7.95143V7.02501M7.62668 13.0467C8.71 13.886 11.1393 13.886 12.6531 13.0467M9.80205 10.7307L9.99883 10.5388C10.177 10.3651 10.2771 10.1294 10.2771 9.88373V7.48822" stroke="white" stroke-width="1.21622" stroke-linecap="round"/>
</svg>
