<svg width="21" height="22" viewBox="0 0 21 22" fill="none" xmlns="http://www.w3.org/2000/svg">
<path fill-rule="evenodd" clip-rule="evenodd" d="M2.75781 7.06536C2.75781 5.83392 3.7561 4.83563 4.98754 4.83563H16.3389C17.5703 4.83563 18.5686 5.83392 18.5686 7.06536V15.1735C18.5686 16.4049 17.5703 17.4032 16.3389 17.4032H4.98754C3.7561 17.4032 2.75781 16.4049 2.75781 15.1735V7.06536ZM4.98754 6.05185C4.42779 6.05185 3.97403 6.50561 3.97403 7.06536V8.42648H17.3524V7.06536C17.3524 6.50561 16.8986 6.05185 16.3389 6.05185H4.98754ZM3.97403 15.1735V9.64269H17.3524V15.1735C17.3524 15.7332 16.8986 16.187 16.3389 16.187H4.98754C4.42779 16.187 3.97403 15.7332 3.97403 15.1735ZM12.0532 13.2913C11.7174 13.2913 11.4451 13.5636 11.4451 13.8995C11.4451 14.2353 11.7174 14.5076 12.0532 14.5076H15.5281C15.864 14.5076 16.1362 14.2353 16.1362 13.8995C16.1362 13.5636 15.864 13.2913 15.5281 13.2913H12.0532Z" fill="white"/>
</svg>
